<mxfile host="app.diagrams.net" modified="2023-09-15T08:46:41.083Z" agent="Mozilla/5.0 (Windows NT 10.0; Win64; x64) AppleWebKit/537.36 (KHTML, like Gecko) Chrome/115.0.0.0 Safari/537.36 OPR/101.0.0.0 (Edition Yx GX)" version="21.7.5" etag="SVP2LCS6w3GJng7jj0EV" type="github">
  <diagram name="Страница — 1" id="m-jkoeilJPYwlHBII13I">
    <mxGraphModel>
      <root>
        <mxCell id="0" />
        <mxCell id="1" parent="0" />
      </root>
    </mxGraphModel>
  </diagram>
</mxfile>
